<?xml version="1.0" encoding="utf-8"?>
<!-- Generator: Adobe Illustrator 14.0.0, SVG Export Plug-In . SVG Version: 6.00 Build 43363)  -->
<!DOCTYPE svg PUBLIC "-//W3C//DTD SVG 1.1//EN" "http://www.w3.org/Graphics/SVG/1.1/DTD/svg11.dtd">
<svg version="1.1"
	 id="svg2" xmlns:rdf="http://www.w3.org/1999/02/22-rdf-syntax-ns#" sodipodi:docname="steam condenser.svg" inkscape:version="0.46" xmlns:svg="http://www.w3.org/2000/svg" xmlns:sodipodi="http://sodipodi.sourceforge.net/DTD/sodipodi-0.dtd" xmlns:inkscape="http://www.inkscape.org/namespaces/inkscape" xmlns:dc="http://purl.org/dc/elements/1.1/" sodipodi:version="0.32" xmlns:cc="http://creativecommons.org/ns#" inkscape:output_extension="org.inkscape.output.svg.inkscape"
	 xmlns="http://www.w3.org/2000/svg" xmlns:xlink="http://www.w3.org/1999/xlink" x="0px" y="0px" width="64px" height="64px"
	 viewBox="0 0 64 64" enable-background="new 0 0 64 64" xml:space="preserve">
<defs>
	
	
		<inkscape:perspective  id="perspective10" inkscape:vp_y="0 : 1000 : 0" inkscape:vp_x="0 : 526.18109 : 1" sodipodi:type="inkscape:persp3d" inkscape:persp3d-origin="372.04724 : 350.78739 : 1" inkscape:vp_z="744.09448 : 526.18109 : 1">
		</inkscape:perspective>
</defs>
<sodipodi:namedview  id="base" inkscape:window-y="-4" inkscape:window-x="-4" inkscape:window-height="977" inkscape:window-width="1280" showgrid="false" inkscape:current-layer="layer1" inkscape:document-units="px" inkscape:cy="3.9595855" inkscape:cx="50.843773" inkscape:zoom="4.28" inkscape:pageshadow="2" inkscape:pageopacity="0.0" borderopacity="1.0" pagecolor="#ffffff" bordercolor="#666666">
	</sodipodi:namedview>
<g id="layer1" inkscape:groupmode="layer" inkscape:label="Ebene 1">
	
		<radialGradient id="path2385_1_" cx="-92.5078" cy="193.2021" r="15.0435" gradientTransform="matrix(1.8243 0 0 -1.9079 200.7633 428.1043)" gradientUnits="userSpaceOnUse">
		<stop  offset="0" style="stop-color:#205272;stop-opacity:0.2314"/>
		<stop  offset="1" style="stop-color:#205272"/>
	</radialGradient>
	<path id="path2385" fill="url(#path2385_1_)" stroke="#205272" stroke-width="1" stroke-linejoin="round" d="M32,5
		C17.096,5,5,17.096,5,32c0,14.904,12.096,27,27,27c14.904,0,27-12.096,27-27C59,17.096,46.904,5,32,5z M38.25,14.438
		c0.289,0,0.586,0,0.875,0c0.156,0.009,0.312,0.021,0.469,0.031c0.156,0.001,0.312,0,0.469,0c0.149,0.009,0.288,0.021,0.438,0.031
		c0.174,0.031,0.357,0.063,0.531,0.094c0.253,0.033,0.496,0.062,0.75,0.094c0.406,0.094,0.812,0.188,1.219,0.281
		c0.25,0.083,0.5,0.167,0.75,0.25c0.115,0.052,0.229,0.104,0.344,0.156c0.125,0.042,0.25,0.083,0.375,0.125
		c0.143,0.082,0.295,0.168,0.438,0.25c0.074,0.035,0.143,0.061,0.219,0.094c0.102,0.061,0.211,0.127,0.312,0.188
		c0.285,0.188,0.56,0.374,0.844,0.562c0.081,0.071,0.169,0.148,0.25,0.219c0.17,0.168,0.33,0.331,0.5,0.5
		c-0.01,0.049,0.039,0.059,0.062,0.094c0.045,0.039,0.094,0.106,0.125,0.156c0.05,0.064,0.105,0.125,0.156,0.188
		c0.055,0.075,0.102,0.144,0.156,0.219c-0.01,0.03,0.012,0.044,0.031,0.062c0.036,0.019,0.031,0.06,0.031,0.094
		c-0.011,0.034,0.012,0.041,0.031,0.062c0.045,0.021,0.023,0.103,0.062,0.125c0.036,0.024,0.043,0.072,0.094,0.062
		c0,0.045,0,0.08,0,0.125c-0.01,0.027,0.014,0.031,0.031,0.031c0,0.035,0,0.059,0,0.094c-0.012,0.03,0.035,0.036,0.031,0.062
		c-0.01,0.027,0.014,0.031,0.031,0.031c0,0.035,0,0.059,0,0.094c-0.01,0.027,0.014,0.031,0.031,0.031c0,0.042,0,0.083,0,0.125
		c0.041,0.146,0.084,0.292,0.125,0.438c0,0.098,0,0.184,0,0.281c0.006,0.015-0.025,0.067,0,0.062
		c0.035-0.011,0.025,0.044,0.031,0.062c-0.006,0.047,0.02,0.097-0.031,0.125c0,0.098,0,0.184,0,0.281
		c-0.006,0.015,0.025,0.067,0,0.062c-0.033-0.011-0.027,0.013-0.031,0.031c-0.008,0.045,0.014,0.126-0.031,0.156
		c-0.019,0.039,0.012,0.083,0,0.125c-0.036,0.019-0.031,0.06-0.031,0.094c0.011,0.034-0.012,0.041-0.031,0.062
		c-0.045,0.021-0.023,0.103-0.062,0.125c-0.023,0.009,0.008,0.016,0,0.031c-0.027,0.016-0.036,0.033-0.031,0.062
		C47.822,20.996,47.799,21,47.781,21c0,0.042,0,0.083,0,0.125c-0.025,0.018-0.031,0.058-0.062,0.062
		c-0.032-0.011-0.028,0.014-0.031,0.031c-0.012,0.033,0.014,0.028,0.031,0.031c0.045,0.008,0.126-0.014,0.156,0.031
		c0.038,0.017,0.082-0.005,0.125,0c0.084,0.021,0.166,0.042,0.25,0.062c0.062,0,0.125,0,0.188,0c0.06,0.02,0.128,0.043,0.188,0.062
		c0.062,0.007,0.125-0.002,0.188,0c0.047,0.006,0.097-0.019,0.125,0.031c0.076,0,0.143,0,0.219,0
		c0.03-0.012,0.035,0.036,0.062,0.031c0.027-0.01,0.031,0.014,0.031,0.031c0.045,0,0.08,0,0.125,0
		c0.027-0.01,0.031,0.014,0.031,0.031c0.07,0,0.148,0,0.219,0c0.037,0.006,0.063-0.022,0.094,0c0.02,0.045,0.103,0.023,0.125,0.062
		c0.01,0.028,0.02-0.022,0.031,0c0.016,0.03,0.066,0.03,0.094,0.031c0.039,0.007,0.097-0.003,0.125,0.031
		c0.009,0.023,0.016-0.008,0.031,0c0.021,0.041,0.057,0.029,0.094,0.031c0.027-0.01,0.031,0.014,0.031,0.031
		c0.053,0,0.104,0,0.156,0c0.07,0.02,0.148,0.042,0.219,0.062c0.074,0.028,0.146,0.063,0.219,0.094
		c0.075,0.024,0.143,0.04,0.219,0.062c0.115,0.021,0.229,0.042,0.344,0.062c0.039-0.017,0.058,0.042,0.094,0.031
		c0.049-0.014,0.062,0.036,0.094,0.062c0.023-0.005,0.049,0.012,0.062,0.031c0.035,0.017,0.086-0.005,0.125,0
		c0.041-0.011,0.068,0.036,0.094,0.062c0.014,0.028,0.051,0,0.062,0.031c0.009,0.023,0.016-0.008,0.031,0
		c0.02,0.036,0.06,0.032,0.094,0.031c0.029-0.008,0.045,0.012,0.062,0.031c0.058-0.017,0.066,0.08,0.125,0.062
		c0.027-0.008,0.061,0.004,0.062,0.031c-0.012,0.032,0.014,0.028,0.031,0.031c0.027-0.01,0.031,0.014,0.031,0.031
		c0.041,0,0.084,0,0.125,0c0.057-0.017,0.068,0.079,0.125,0.062c0.03-0.009,0.044,0.012,0.062,0.031
		c0.02,0.036,0.06,0.032,0.094,0.031c0.053,0.053,0.104,0.103,0.156,0.156c0.021,0.041,0.057,0.029,0.094,0.031
		c0.027-0.01,0.031,0.014,0.031,0.031c0.031,0.001,0.076-0.003,0.094,0.031c0.051,0.044,0.104,0.083,0.156,0.125
		c0.064,0.045,0.123,0.081,0.188,0.125c0.05,0.05,0.106,0.106,0.156,0.156c0.051,0.044,0.104,0.083,0.156,0.125
		c0.062,0.058,0.127,0.128,0.188,0.188c0.036,0.024,0.043,0.072,0.094,0.062c0,0.031,0,0.062,0,0.094
		c0.025,0.018,0.031,0.058,0.062,0.062c0.035-0.011,0.025,0.044,0.031,0.062c-0.014,0.049,0.035,0.062,0.062,0.094
		c-0.008,0.029,0.012,0.045,0.031,0.062c-0.01,0.03,0.012,0.044,0.031,0.062c0.041,0.021,0.029,0.057,0.031,0.094
		c-0.01,0.027,0.014,0.031,0.031,0.031c0.021,0.115,0.041,0.229,0.062,0.344c0,0.149,0,0.288,0,0.438
		c0.012,0.028-0.018,0.028-0.031,0.031c0.018,0.039-0.041,0.058-0.031,0.094c-0.006,0.037,0.021,0.063,0,0.094
		c-0.029,0.015-0.03,0.066-0.031,0.094c-0.017,0.041-0.065,0.058-0.094,0.094c-0.029,0.06-0.064,0.128-0.094,0.188
		c-0.041,0.067-0.082,0.122-0.125,0.188c-0.1,0.1-0.213,0.213-0.312,0.312c-0.014,0.028-0.051,0-0.062,0.031
		c-0.028,0.013,0,0.05-0.031,0.062c-0.029,0.042-0.055,0.034-0.094,0.062c-0.039,0.045-0.106,0.093-0.156,0.125
		c-0.053,0.022-0.088,0.05-0.125,0.094c-0.062,0.042-0.125,0.083-0.188,0.125c-0.062,0.021-0.125,0.042-0.188,0.062
		c-0.156,0.094-0.312,0.188-0.469,0.281c-0.247,0.103-0.503,0.209-0.75,0.312c-0.078,0.025-0.141,0.038-0.219,0.062
		c-0.051,0.021-0.101,0.038-0.156,0.031c-0.03-0.012-0.035,0.036-0.062,0.031c-0.03-0.012-0.035,0.036-0.062,0.031
		c-0.027-0.01-0.031,0.014-0.031,0.031c-0.045,0-0.08,0-0.125,0c-0.027-0.01-0.031,0.014-0.031,0.031
		c-0.034-0.011-0.041,0.012-0.062,0.031c-0.018,0.042-0.069,0.004-0.094,0.031c-0.016,0.03-0.066,0.03-0.094,0.031
		c-0.037,0.006-0.063-0.022-0.094,0c-0.016,0.03-0.066,0.03-0.094,0.031c-0.047,0.006-0.097-0.019-0.125,0.031
		c-0.029-0.008-0.045,0.012-0.062,0.031c0,0.083,0,0.167,0,0.25c-0.021,0-0.041,0-0.062,0c0,0.031,0,0.062,0,0.094
		c0.017,0.057-0.079,0.068-0.062,0.125c-0.084,0.083-0.166,0.167-0.25,0.25c0.011,0.038-0.042,0.069-0.062,0.094
		c-0.036,0.024-0.043,0.072-0.094,0.062c-0.062,0.062-0.125,0.125-0.188,0.188c-0.062,0.042-0.125,0.083-0.188,0.125
		c-0.084,0.042-0.166,0.083-0.25,0.125c0.102,0.041,0.211,0.084,0.312,0.125c0.106,0.034,0.205,0.061,0.312,0.094
		c0.094,0.042,0.188,0.083,0.281,0.125c0.104,0.031,0.209,0.062,0.312,0.094c0.125,0.073,0.25,0.146,0.375,0.219
		c0.062,0.021,0.125,0.042,0.188,0.062c0.053,0.031,0.104,0.062,0.156,0.094c0.061,0.05,0.127,0.106,0.188,0.156
		C51.377,29.92,51.436,29.956,51.5,30c0.07,0.07,0.148,0.148,0.219,0.219c0.021,0.031,0.066,0.052,0.062,0.094
		c0.027,0.051,0.086,0.079,0.125,0.125c-0.012,0.044,0.041,0.063,0.062,0.094c-0.012,0.044,0.041,0.063,0.062,0.094
		c0.02,0.06,0.043,0.128,0.062,0.188c0.008,0.058-0.002,0.098,0,0.156C52.084,30.996,52.107,31,52.125,31c0,0.024,0,0.038,0,0.062
		c0.01,0.027-0.014,0.031-0.031,0.031c0,0.073,0,0.146,0,0.219c-0.031,0.021-0.049,0.074-0.094,0.062c0,0.038,0,0.087,0,0.125
		c0.014,0.05-0.035,0.061-0.062,0.094c-0.036,0.019-0.031,0.06-0.031,0.094c-0.089,0.089-0.192,0.192-0.281,0.281
		c-0.036,0.024-0.043,0.072-0.094,0.062c-0.047,0.047-0.109,0.109-0.156,0.156c-0.009,0.023-0.016-0.008-0.031,0
		c-0.02,0.036-0.06,0.032-0.094,0.031c-0.053,0.052-0.104,0.104-0.156,0.156c-0.031-0.006-0.066,0.019-0.094,0.031
		c-0.049,0.038-0.08,0.083-0.125,0.125c-0.062,0.021-0.125,0.041-0.188,0.062c-0.053,0.031-0.104,0.062-0.156,0.094
		c-0.094,0.031-0.188,0.062-0.281,0.094c-0.084,0.041-0.166,0.084-0.25,0.125c-0.104,0.031-0.209,0.062-0.312,0.094
		c-0.091,0.04-0.19,0.085-0.281,0.125c-0.096,0.034-0.185,0.061-0.281,0.094c-0.062,0.01-0.125,0.021-0.188,0.031
		c-0.029-0.008-0.045,0.012-0.062,0.031c-0.031,0.002-0.076-0.003-0.094,0.031c-0.039,0.019-0.084-0.012-0.125,0
		c-0.02,0.037-0.059,0.031-0.094,0.031c-0.027-0.008-0.061,0.004-0.062,0.031c0.012,0.035-0.043,0.025-0.062,0.031
		c-0.047,0.006-0.097-0.02-0.125,0.031c-0.07,0.01-0.148,0.021-0.219,0.031c-0.065,0.004-0.121-0.001-0.188,0
		c-0.125,0.041-0.25,0.084-0.375,0.125c-0.133,0.021-0.273,0.042-0.406,0.062c-0.128,0.012-0.246,0.02-0.375,0.031
		c-0.246,0.041-0.504,0.084-0.75,0.125c-0.729,0.104-1.459,0.208-2.188,0.312c-0.367,0.043-0.727,0.083-1.094,0.125
		c-0.26,0.062-0.521,0.125-0.781,0.188c-0.25,0.021-0.5,0.041-0.75,0.062c-0.51,0.115-1.021,0.229-1.531,0.344
		c-0.604,0.072-1.209,0.146-1.812,0.219c-0.094,0.053-0.188,0.104-0.281,0.156c-0.062,0-0.125,0-0.188,0
		c-0.062,0.01-0.125,0.021-0.188,0.031c-0.076,0-0.143,0-0.219,0c-0.027-0.01-0.031,0.014-0.031,0.031
		c-0.01-0.004-0.039,0.021-0.031,0c0.012-0.032-0.014-0.028-0.031-0.031c-0.027-0.01-0.031,0.014-0.031,0.031
		c-0.045,0-0.08,0-0.125,0c-0.014-0.006-0.066,0.025-0.062,0c0.006-0.02-0.013-0.035-0.031-0.031
		c-0.047,0.006-0.097-0.02-0.125,0.031c-0.034-0.011-0.041,0.012-0.062,0.031c-0.02,0.037-0.062,0.021-0.094,0.031
		c-0.051,0.021-0.101,0.037-0.156,0.031c-0.027,0.01-0.031-0.014-0.031-0.031c-0.019,0.006-0.044,0.025-0.062,0.031
		c-0.059,0.014-0.098,0.021-0.156,0.031c-0.027,0.01-0.031-0.014-0.031-0.031c-0.021,0-0.041,0-0.062,0
		c-0.021,0.043-0.033,0.109-0.094,0.094c-0.027,0.01-0.031-0.014-0.031-0.031c-0.021,0-0.041,0-0.062,0
		c-0.031,0.034-0.076,0.066-0.125,0.062c-0.04,0.045-0.104,0.066-0.125,0.125c-0.003,0.029-0.012,0.028-0.031,0.031
		c-0.025-0.009-0.053,0.016-0.062,0.031c-0.004,0.045-0.036,0.02-0.062,0.031c-0.02,0.037-0.06,0.031-0.094,0.031
		c0,0.021,0,0.041,0,0.062c-0.031,0.008-0.062,0.023-0.094,0.031c-0.033-0.006-0.034,0.031-0.062,0.031
		c-0.035-0.012-0.025,0.044-0.031,0.062C34.958,35.969,34.9,35.977,34.875,36c-0.01,0.008-0.038,0.021-0.031,0
		c0.01-0.027-0.014-0.031-0.031-0.031c0,0.031,0,0.062,0,0.094c-0.021,0-0.041,0-0.062,0c-0.039-0.018-0.058,0.041-0.094,0.031
		c-0.051,0.02-0.061,0.084-0.094,0.125c-0.018-0.02-0.033-0.041-0.062-0.031c0.008,0.029-0.012,0.045-0.031,0.062
		c-0.045-0.014-0.038,0.037-0.062,0.062c-0.029,0.02-0.031,0.078-0.062,0.094c-0.021,0.032-0.047-0.006-0.062-0.031
		c-0.021,0.021-0.041,0.041-0.062,0.062c0.01,0.035-0.026,0.072-0.062,0.062c0.012,0.038-0.043,0.068-0.062,0.094
		c-0.01,0.02-0.021-0.017-0.031-0.031c-0.015-0.028-0.012,0.025-0.031,0.031c-0.029,0.021-0.076-0.004-0.094-0.031
		c-0.271,0.291-0.541,0.584-0.812,0.875c-0.125,0.072-0.25,0.146-0.375,0.219c-0.156,0.053-0.312,0.104-0.469,0.156
		c-0.125,0-0.25,0-0.375,0c-0.354-0.135-0.708-0.271-1.062-0.406c-0.167-0.135-0.333-0.271-0.5-0.406
		c-0.146-0.156-0.292-0.312-0.438-0.469c-0.091-0.07-0.19-0.148-0.281-0.219c-0.025-0.031-0.073-0.047-0.062-0.094
		c-0.045-0.045-0.08-0.08-0.125-0.125c-0.033-0.025-0.055-0.082-0.094-0.094c-0.027,0.01-0.031-0.014-0.031-0.031
		c-0.029,0.008-0.045-0.012-0.062-0.031c0.014-0.044-0.038-0.041-0.062-0.062c-0.019-0.037-0.06-0.031-0.094-0.031
		c0-0.031,0-0.062,0-0.094c0.013-0.041-0.039-0.041-0.062-0.062c-0.034-0.01-0.056-0.068-0.094-0.062
		c-0.026,0.01,0.028-0.042,0-0.031c-0.03,0.012-0.036-0.035-0.062-0.031c-0.027,0.01-0.031-0.014-0.031-0.031
		c-0.016-0.018-0.004-0.062-0.031-0.062c-0.03,0.012-0.036-0.035-0.062-0.031c-0.032,0.012-0.028-0.014-0.031-0.031
		c0.012-0.03-0.036-0.035-0.031-0.062c0.011-0.032-0.014-0.028-0.031-0.031c-0.03,0.012-0.036-0.035-0.062-0.031
		c-0.028,0.01-0.031-0.014-0.031-0.031c0.008-0.027-0.004-0.061-0.031-0.062c-0.027,0.01-0.031-0.014-0.031-0.031
		c-0.035,0-0.059,0-0.094,0c-0.038,0.014-0.007-0.021-0.031-0.031c-0.033-0.025-0.055-0.082-0.094-0.094
		c-0.014-0.006-0.067,0.025-0.062,0c0.012-0.033-0.015-0.022-0.031-0.031c-0.051-0.021-0.101-0.037-0.156-0.031
		C28.004,34.959,28,34.982,28,35c-0.028-0.01-0.065-0.021-0.094-0.031c-0.032-0.015-0.044,0.008-0.062,0.031
		c-0.016,0.027-0.033,0.036-0.062,0.031c-0.032-0.012-0.028,0.014-0.031,0.031c0.011,0.032-0.014,0.028-0.031,0.031
		c-0.03-0.012-0.036,0.035-0.062,0.031c-0.027-0.01-0.031,0.014-0.031,0.031c-0.045,0-0.08,0-0.125,0
		c-0.027,0.01-0.031-0.014-0.031-0.031c-0.01,0.004-0.039-0.021-0.031,0c0.01,0.027-0.014,0.031-0.031,0.031
		c-0.029-0.008-0.045,0.012-0.062,0.031c-0.115,0.019-0.23,0.038-0.344,0.062c-0.229,0.062-0.458,0.125-0.688,0.188
		c-0.083-0.021-0.167-0.041-0.25-0.062c-0.167,0.021-0.333,0.041-0.5,0.062c-0.101-0.061-0.211-0.127-0.312-0.188
		c-0.055-0.02-0.104,0.015-0.156,0.031c-0.08,0-0.17,0-0.25,0c-0.026,0.01,0.028-0.042,0-0.031c-0.03,0.012-0.036-0.035-0.062-0.031
		c-0.027,0.01-0.031-0.014-0.031-0.031c-0.056,0-0.101,0-0.156,0c-0.027,0.01-0.031-0.014-0.031-0.031
		c-0.029,0.008-0.045-0.012-0.062-0.031c-0.029,0.008-0.045-0.012-0.062-0.031c-0.024,0.006-0.049-0.012-0.062-0.031
		c-0.038-0.018-0.082,0.006-0.125,0c0-0.021,0-0.041,0-0.062c-0.042-0.002-0.085,0.007-0.125,0
		c-0.016-0.027-0.033-0.036-0.062-0.031c-0.03,0.012-0.036-0.035-0.062-0.031c-0.027,0.01-0.031-0.014-0.031-0.031
		c-0.031,0-0.062,0-0.094,0c-0.029,0.01-0.044-0.014-0.062-0.031c-0.052-0.002-0.106,0.007-0.156,0
		c-0.019-0.036-0.06-0.031-0.094-0.031c-0.029,0.01-0.044-0.014-0.062-0.031c-0.027,0.008-0.061-0.004-0.062-0.031
		c0.011-0.032-0.014-0.028-0.031-0.031c-0.014-0.006-0.067,0.025-0.062,0c0.01-0.027-0.014-0.031-0.031-0.031
		c0-0.041,0-0.084,0-0.125c-0.062,0-0.125,0-0.188,0c0-0.021,0-0.041,0-0.062c-0.056,0-0.101,0-0.156,0
		c-0.032,0.012-0.028-0.014-0.031-0.031c0.011-0.035-0.043-0.025-0.062-0.031c-0.041,0.012-0.068-0.036-0.094-0.062
		c-0.036-0.024-0.043-0.072-0.094-0.062c0-0.035,0-0.059,0-0.094c0.011-0.035-0.043-0.025-0.062-0.031
		c-0.056-0.002-0.103,0.007-0.156,0c-0.016-0.027-0.033-0.036-0.062-0.031c-0.03,0.012-0.036-0.035-0.062-0.031
		c-0.027,0.01-0.031-0.014-0.031-0.031c-0.021,0-0.042,0-0.062,0c0-0.021,0-0.041,0-0.062c-0.024,0-0.038,0-0.062,0
		c-0.027,0.01-0.031-0.014-0.031-0.031c-0.021,0-0.042,0-0.062,0c0-0.021,0-0.041,0-0.062c-0.021,0-0.042,0-0.062,0
		c0-0.021,0-0.041,0-0.062c-0.044,0.011-0.063-0.041-0.094-0.062c0.009-0.03-0.012-0.044-0.031-0.062
		c-0.016-0.027-0.033-0.036-0.062-0.031c-0.03,0.012-0.036-0.035-0.062-0.031c-0.027,0.01-0.031-0.014-0.031-0.031
		c-0.035,0-0.059,0-0.094,0c-0.032,0.012-0.028-0.014-0.031-0.031c0.005-0.02-0.013-0.035-0.031-0.031
		c-0.04-0.008-0.097,0.003-0.125-0.031c-0.036-0.024-0.043-0.072-0.094-0.062c-0.017-0.02-0.034-0.041-0.062-0.031
		c0-0.041,0-0.084,0-0.125c-0.031-0.021-0.049-0.074-0.094-0.062c-0.018-0.025-0.058-0.031-0.062-0.062
		c0.011-0.032-0.014-0.028-0.031-0.031c-0.032,0.012-0.028-0.014-0.031-0.031c0.01-0.027-0.014-0.031-0.031-0.031
		c0.001-0.02-0.012-0.052-0.031-0.062c-0.01-0.027-0.019,0.022-0.031,0c-0.02-0.045-0.103-0.023-0.125-0.062
		c-0.038-0.029-0.037-0.077-0.094-0.062c-0.027,0.01-0.031-0.014-0.031-0.031c-0.026-0.018-0.031-0.059-0.062-0.062
		c-0.03,0.012-0.036-0.035-0.062-0.031c-0.014-0.006-0.067,0.025-0.062,0c0.01-0.027-0.014-0.031-0.031-0.031
		c-0.021-0.031-0.074-0.049-0.062-0.094c-0.021,0-0.042,0-0.062,0c0-0.021,0-0.041,0-0.062c-0.021,0-0.042,0-0.062,0
		c0-0.031,0-0.062,0-0.094c-0.019-0.018-0.041-0.033-0.031-0.062c-0.019-0.017-0.041-0.034-0.031-0.062
		c-0.026-0.018-0.031-0.058-0.062-0.062c-0.032,0.011-0.028-0.014-0.031-0.031c0.011-0.032-0.014-0.028-0.031-0.031
		c-0.032,0.011-0.028-0.014-0.031-0.031c0.01-0.027-0.014-0.031-0.031-0.031c0-0.035,0-0.059,0-0.094
		c0.005-0.019-0.013-0.036-0.031-0.031c-0.05,0.014-0.061-0.035-0.094-0.062c-0.036-0.019-0.032-0.06-0.031-0.094
		c-0.024,0.005-0.049-0.012-0.062-0.031c-0.021-0.031-0.066-0.052-0.062-0.094c0.014-0.049-0.036-0.062-0.062-0.094
		c0.011-0.038-0.042-0.069-0.062-0.094c-0.036-0.024-0.043-0.072-0.094-0.062c0-0.045,0-0.08,0-0.125
		c0.01-0.027-0.014-0.031-0.031-0.031c0.008-0.029-0.012-0.045-0.031-0.062c0.008-0.029-0.012-0.045-0.031-0.062
		c0.011-0.044-0.041-0.063-0.062-0.094c-0.125-0.042-0.25-0.083-0.375-0.125c-0.385-0.031-0.771-0.062-1.156-0.094
		c-0.156-0.031-0.312-0.062-0.469-0.094c-0.167-0.01-0.333-0.021-0.5-0.031c-0.278-0.051-0.566-0.105-0.844-0.156
		c-0.167-0.022-0.333-0.041-0.5-0.062c-0.069-0.003-0.118,0.001-0.188,0c-0.014-0.006-0.067,0.025-0.062,0
		c0.011-0.033-0.013-0.028-0.031-0.031c-0.045-0.008-0.126,0.014-0.156-0.031c-0.042-0.017-0.078,0.005-0.125,0
		c-0.061,0.007-0.131-0.009-0.188-0.031c-0.073-0.01-0.146-0.021-0.219-0.031c-0.062-0.021-0.125-0.042-0.188-0.062
		c-0.073-0.01-0.146-0.021-0.219-0.031c-0.062-0.021-0.125-0.042-0.188-0.062c-0.077,0-0.142,0-0.219,0
		c-0.014-0.006-0.067,0.025-0.062,0c0.011-0.032-0.014-0.028-0.031-0.031c-0.027,0.01-0.031-0.014-0.031-0.031
		c-0.045,0-0.08,0-0.125,0c-0.027,0.01-0.031-0.014-0.031-0.031c-0.045,0-0.08,0-0.125,0c-0.014-0.006-0.067,0.025-0.062,0
		c0.01-0.027-0.014-0.031-0.031-0.031c-0.036-0.021-0.083-0.039-0.125-0.031c-0.026,0.009,0.028-0.042,0-0.031
		c-0.027,0.01-0.031-0.014-0.031-0.031c-0.062,0-0.125,0-0.188,0c-0.029,0.008-0.045-0.012-0.062-0.031
		c-0.024,0.005-0.049-0.012-0.062-0.031c-0.038-0.017-0.082,0.005-0.125,0c-0.034,0.011-0.041-0.012-0.062-0.031
		C12.625,30.011,12.53,30.055,12.5,30c-0.048-0.017-0.103,0.005-0.156,0c-0.029,0.008-0.045-0.012-0.062-0.031
		c-0.032,0.006-0.066-0.019-0.094-0.031c-0.052-0.031-0.114-0.048-0.156-0.094c-0.038-0.017-0.082,0.005-0.125,0
		c-0.034,0.011-0.041-0.012-0.062-0.031c-0.02-0.045-0.103-0.023-0.125-0.062c-0.005-0.029-0.037,0.027-0.031,0
		c0.011-0.035-0.043-0.026-0.062-0.031c-0.047-0.006-0.097,0.019-0.125-0.031c-0.029,0.008-0.045-0.012-0.062-0.031
		c-0.198-0.104-0.396-0.208-0.594-0.312c-0.062-0.021-0.125-0.042-0.188-0.062c-0.062-0.042-0.125-0.083-0.188-0.125
		c-0.054,0.017-0.075-0.07-0.125-0.062c-0.049,0.014-0.062-0.036-0.094-0.062c-0.057,0.017-0.068-0.079-0.125-0.062
		c-0.097-0.097-0.184-0.184-0.281-0.281c-0.03-0.015-0.03-0.066-0.031-0.094c-0.027-0.051-0.086-0.079-0.125-0.125
		c-0.042-0.073-0.083-0.146-0.125-0.219c0-0.066,0-0.121,0-0.188c0.012-0.03-0.036-0.036-0.031-0.062
		c-0.01-0.027,0.014-0.031,0.031-0.031c0-0.062,0-0.125,0-0.188c0.019-0.017,0.041-0.034,0.031-0.062
		c-0.017-0.057,0.079-0.068,0.062-0.125c-0.008-0.029,0.012-0.045,0.031-0.062c-0.017-0.057,0.079-0.068,0.062-0.125
		c0.026-0.018,0.031-0.058,0.062-0.062c0.032,0.011,0.028-0.014,0.031-0.031c-0.012-0.031,0.017-0.022,0.031-0.031
		c0.041-0.021,0.029-0.057,0.031-0.094c-0.01-0.028,0.014-0.031,0.031-0.031c0.039,0.017,0.058-0.042,0.094-0.031
		c0.042-0.018,0.057-0.064,0.094-0.094C10.144,26.995,10.185,27,10.219,27c0.021-0.031,0.074-0.049,0.062-0.094
		c0.045,0.012,0.062-0.042,0.094-0.062c0.039,0.017,0.058-0.042,0.094-0.031c0.042-0.018,0.057-0.064,0.094-0.094
		c0.019-0.036,0.06-0.032,0.094-0.031c0-0.021,0-0.042,0-0.062c0.035,0,0.059,0,0.094,0c0.032,0.011,0.028-0.014,0.031-0.031
		c-0.011-0.032,0.014-0.028,0.031-0.031c0.03,0.012,0.036-0.036,0.062-0.031c0.03,0.012,0.036-0.036,0.062-0.031
		c0.027,0.01,0.031-0.014,0.031-0.031c0.042,0,0.083,0,0.125,0c0.029,0.008,0.045-0.012,0.062-0.031
		c0.024,0.005,0.049-0.012,0.062-0.031c0.038-0.017,0.082,0.005,0.125,0c0-0.021,0-0.042,0-0.062c0.031,0,0.062,0,0.094,0
		c0.024-0.033,0.061-0.042,0.094-0.062c0.016-0.027,0.033-0.036,0.062-0.031c0.027,0.01,0.031-0.014,0.031-0.031
		c0.042,0,0.083,0,0.125,0c0.017-0.019,0.034-0.041,0.062-0.031c0.029,0.008,0.045-0.012,0.062-0.031
		c0.057,0.017,0.068-0.079,0.125-0.062c0.091-0.03,0.19-0.063,0.281-0.094c0.166-0.043,0.333-0.083,0.5-0.125
		c0.139-0.042,0.268-0.083,0.406-0.125c-0.031-0.021-0.062-0.042-0.094-0.062c-0.06-0.06-0.127-0.127-0.188-0.188
		c-0.021-0.031-0.066-0.052-0.062-0.094c-0.022-0.046-0.091-0.083-0.125-0.125c-0.028-0.013,0-0.05-0.031-0.062
		c-0.028-0.013,0-0.05-0.031-0.062c-0.029-0.038-0.077-0.037-0.062-0.094c0.01-0.027-0.014-0.031-0.031-0.031
		c0-0.035,0-0.059,0-0.094c0.01-0.027-0.014-0.031-0.031-0.031c0-0.042,0-0.083,0-0.125c-0.021,0-0.042,0-0.062,0
		c0-0.038,0-0.087,0-0.125c-0.002-0.056,0.007-0.103,0-0.156c-0.027-0.016-0.036-0.033-0.031-0.062
		c-0.01-0.027,0.014-0.031,0.031-0.031c0-0.052,0-0.104,0-0.156c0.019-0.017,0.041-0.034,0.031-0.062
		c0.02-0.018,0.04-0.033,0.031-0.062c-0.017-0.039,0.042-0.058,0.031-0.094c0.006-0.047-0.019-0.097,0.031-0.125
		c-0.011-0.044,0.041-0.063,0.062-0.094c-0.009-0.03,0.012-0.044,0.031-0.062c0.036-0.019,0.032-0.06,0.031-0.094
		c0.057-0.057,0.1-0.1,0.156-0.156c0.044-0.039,0.106-0.094,0.156-0.125c0.059-0.021,0.08-0.085,0.125-0.125
		c0.056-0.044,0.099-0.083,0.156-0.125c0.051-0.031,0.117-0.08,0.156-0.125c0.031-0.021,0.052-0.066,0.094-0.062
		c0.049,0.014,0.062-0.036,0.094-0.062c0.029,0.008,0.045-0.012,0.062-0.031c0.044,0.011,0.063-0.041,0.094-0.062
		c0.029,0.008,0.045-0.012,0.062-0.031c0.044,0.011,0.063-0.041,0.094-0.062c0.104-0.042,0.208-0.083,0.312-0.125
		c0.073-0.042,0.146-0.083,0.219-0.125c0.333-0.125,0.667-0.25,1-0.375c0.09-0.02,0.191-0.042,0.281-0.062
		c0.094-0.029,0.188-0.063,0.281-0.094c0.093-0.023,0.188-0.041,0.281-0.062c0.104-0.03,0.208-0.063,0.312-0.094
		c0.062-0.014,0.125-0.02,0.188-0.031c0.077-0.019,0.143-0.042,0.219-0.062c0.208-0.042,0.417-0.083,0.625-0.125
		c0.098,0,0.184,0,0.281,0c0.014-0.006,0.067,0.025,0.062,0c-0.01-0.027,0.014-0.031,0.031-0.031
		c0.029,0.008,0.045-0.012,0.062-0.031c0.08,0,0.17,0,0.25,0c0.047-0.006,0.097,0.019,0.125-0.031c0.062,0,0.125,0,0.188,0
		c0.029,0.008,0.045-0.012,0.062-0.031c0.024,0.005,0.049-0.012,0.062-0.031c0.038-0.017,0.082,0.005,0.125,0
		c0-0.035,0-0.059,0-0.094c-0.008-0.046,0.013-0.125-0.031-0.156c-0.017-0.056,0.005-0.127,0-0.188
		c-0.006-0.037,0.022-0.063,0-0.094c-0.03-0.015-0.03-0.066-0.031-0.094c0.006-0.047-0.019-0.097,0.031-0.125
		c0-0.07,0-0.149,0-0.219c0.006-0.046-0.019-0.097,0.031-0.125c0-0.059,0-0.128,0-0.188c0.007-0.04-0.003-0.097,0.031-0.125
		c0.028-0.01-0.022-0.019,0-0.031c0.036-0.017,0.021-0.066,0.031-0.094c0.036-0.019,0.032-0.06,0.031-0.094
		c0.029,0.008,0.047-0.011,0.062-0.031c0.002-0.052-0.007-0.106,0-0.156c0.036-0.019,0.032-0.06,0.031-0.094
		c0.019-0.017,0.041-0.034,0.031-0.062c0.019-0.017,0.041-0.034,0.031-0.062c0.031-0.024,0.047-0.059,0.062-0.094
		c-0.017-0.039,0.042-0.058,0.031-0.094c-0.014-0.054,0.034-0.058,0.062-0.094c0.045-0.021,0.023-0.103,0.062-0.125
		c0.036-0.024,0.043-0.072,0.094-0.062c0-0.031,0-0.062,0-0.094c0.019,0.001,0.052-0.012,0.062-0.031
		c0.047-0.033,0.046-0.073,0.062-0.125c0.133-0.154,0.273-0.315,0.406-0.469c0.072-0.074,0.146-0.146,0.219-0.219
		c0.08-0.072,0.169-0.147,0.25-0.219c0.095-0.077,0.186-0.143,0.281-0.219c0.176-0.126,0.354-0.25,0.531-0.375
		c0.106-0.065,0.206-0.123,0.312-0.188c0.354-0.177,0.708-0.354,1.062-0.531c0.122-0.041,0.253-0.084,0.375-0.125
		c0.129-0.052,0.247-0.104,0.375-0.156c0.271-0.083,0.542-0.167,0.812-0.25c0.205-0.041,0.42-0.084,0.625-0.125
		c0.108-0.03,0.205-0.062,0.312-0.094c0.115-0.021,0.229-0.042,0.344-0.062c0.188-0.01,0.375-0.021,0.562-0.031
		c0.271-0.042,0.542-0.083,0.812-0.125c0.167-0.01,0.333-0.021,0.5-0.031c0.156,0.01,0.312,0.021,0.469,0.031
		c0.153-0.01,0.316-0.021,0.469-0.031c0.104-0.001,0.208,0,0.312,0c0.104,0.008,0.208,0.021,0.312,0.031
		c0.107,0.002,0.205,0,0.312,0c0.188,0.021,0.375,0.042,0.562,0.062c0.09,0,0.191,0,0.281,0c0.037,0.006,0.063-0.022,0.094,0
		c0.015,0.03,0.066,0.03,0.094,0.031c0.037,0.006,0.063-0.022,0.094,0c0.014,0.026,0.038,0.032,0.062,0.031
		c0.045,0.008,0.126-0.014,0.156,0.031c0.035,0.017,0.085-0.005,0.125,0c0.047,0.006,0.097-0.019,0.125,0.031
		c0.077,0,0.142,0,0.219,0c0.027-0.01,0.031,0.014,0.031,0.031c0.029-0.008,0.045,0.012,0.062,0.031c0.07,0,0.149,0,0.219,0
		c0.037,0.006,0.063-0.022,0.094,0c0.015,0.03,0.066,0.03,0.094,0.031c0.04,0.007,0.097-0.003,0.125,0.031
		c0.01,0.028,0.019-0.022,0.031,0c0.014,0.026,0.038,0.032,0.062,0.031c0.045,0.008,0.126-0.014,0.156,0.031
		c0.038,0.017,0.082-0.005,0.125,0c0.03-0.009,0.044,0.012,0.062,0.031c0.02,0.037,0.059,0.032,0.094,0.031
		c0.027-0.008,0.061,0.004,0.062,0.031c-0.011,0.035,0.043,0.026,0.062,0.031c0.047,0.006,0.097-0.019,0.125,0.031
		c0.072,0.01,0.146,0.021,0.219,0.031c0.072,0.021,0.146,0.042,0.219,0.062c0.057-0.028,0.1-0.065,0.156-0.094
		c0.104-0.049,0.213-0.101,0.312-0.156c0.031-0.045,0.094-0.048,0.125-0.094c0.029,0.009,0.044-0.014,0.062-0.031
		c0.039,0.017,0.058-0.042,0.094-0.031c0.035-0.013,0.062-0.069,0.094-0.094c0.009-0.023,0.016,0.008,0.031,0
		c0.016-0.027,0.033-0.036,0.062-0.031c0.027,0.01,0.031-0.014,0.031-0.031c0.027-0.004,0.077-0.002,0.094-0.031
		c0.009-0.023,0.016,0.008,0.031,0c0.016-0.027,0.033-0.036,0.062-0.031c0.03,0.012,0.035-0.036,0.062-0.031
		c0.027,0.01,0.031-0.014,0.031-0.031c0.039,0,0.086,0,0.125,0c0.041,0.011,0.068-0.036,0.094-0.062
		c0.009-0.023,0.016,0.008,0.031,0c0.02-0.036,0.06-0.032,0.094-0.031c0.021-0.031,0.074-0.049,0.062-0.094c0.041,0,0.084,0,0.125,0
		c0.018-0.019,0.033-0.041,0.062-0.031c0.018-0.019,0.033-0.041,0.062-0.031c0.023-0.031,0.06-0.046,0.094-0.062
		c0.034,0.011,0.041-0.012,0.062-0.031c0.018-0.036,0.066-0.021,0.094-0.031c0.021-0.041,0.057-0.029,0.094-0.031
		c0.027,0.01,0.031-0.014,0.031-0.031c0.066,0,0.121,0,0.188,0c0.03,0.012,0.035-0.036,0.062-0.031
		c0.027,0.01,0.031-0.014,0.031-0.031c0.041,0,0.084,0,0.125,0c-0.006-0.024,0.012-0.049,0.031-0.062
		c0.035-0.017,0.086,0.005,0.125,0c0.047-0.006,0.097,0.019,0.125-0.031c0.084,0,0.166,0,0.25,0
		c0.029,0.008,0.045-0.012,0.062-0.031c0.055,0.017,0.075-0.07,0.125-0.062c0.047-0.006,0.097,0.019,0.125-0.031
		c0.205-0.031,0.42-0.063,0.625-0.094c0.125-0.012,0.25-0.021,0.375-0.031c0.129-0.02,0.246-0.042,0.375-0.062
		C37.979,14.458,38.115,14.448,38.25,14.438z M31.594,40.5c0.087-0.027,0.176,0.044,0.219,0.125
		c0.319,0.537,0.523,1.152,0.906,1.656c0.666,0.863,0.998,1.906,1.469,2.875c0.596,1.01,0.879,2.15,1.344,3.219
		c0.701,1.163,0.851,2.688,0.281,3.938c-0.652,1.582-2.389,2.52-4.062,2.406c-1.704-0.049-3.274-1.309-3.75-2.938
		c-0.402-1.146-0.036-2.346,0.438-3.406c1.006-2.604,2.631-5.01,3.062-7.812C31.521,40.524,31.565,40.51,31.594,40.5z"/>
	<path id="path3177" opacity="0.1822" fill="#FFFFFF" enable-background="new    " d="M32.344,5.898
		c-14.628,0-26.5,11.872-26.5,26.5c0,6.174,2.111,11.868,5.656,16.375c-1.568-3.383-2.469-7.154-2.469-11.125
		c0-14.629,11.872-26.5,26.5-26.5c8.461,0,16.022,3.977,20.875,10.156C52.204,12.216,43.008,5.898,32.344,5.898z"/>
	
		<path id="path2383" sodipodi:ry="20.299999" sodipodi:rx="21.9" sodipodi:cy="31.299999" sodipodi:cx="36.599998" sodipodi:type="arc" fill="none" stroke="#205272" stroke-width="0.7147" stroke-linejoin="round" d="
		M61.5,32c0.005,16.293-13.199,29.504-29.491,29.509C15.716,61.514,2.505,48.311,2.5,32.018c0-0.006,0-0.012,0-0.018
		C2.495,15.708,15.699,2.496,31.991,2.491C48.283,2.486,61.495,15.69,61.5,31.982C61.5,31.988,61.5,31.994,61.5,32z"/>
</g>
</svg>
